<?xml version="1.0" encoding="UTF-8"?>
<svg xmlns="http://www.w3.org/2000/svg" xmlns:xlink="http://www.w3.org/1999/xlink" width="35.87pt" height="45pt" viewBox="0 0 35.87 45" version="1.1">
<g id="surface1">
<path style="fill:none;stroke-width:0.035;stroke-linecap:round;stroke-linejoin:round;stroke:rgb(0%,0%,0%);stroke-opacity:1;stroke-miterlimit:10;" d="M 0.238281 44.371094 L 0.199219 44.371094 L 0.171875 44.339844 L 0.160156 44.308594 L 0.109375 38.960938 L 0.078125 33 L 0.0585938 25.921875 L 0.0585938 7.46875 L 5.191406 4.050781 L 7.171875 2.730469 L 8.878906 1.628906 L 10.390625 0.679688 L 10.570313 0.628906 L 10.769531 0.671875 L 14.300781 2.480469 L 18.25 4.511719 L 22.890625 6.929688 L 34.941406 13.230469 L 34.878906 19.589844 L 34.808594 25.960938 L 25.5 29.238281 L 21.898438 30.511719 L 18.769531 31.609375 L 16.058594 32.550781 L 15.660156 32.671875 L 15.558594 32.660156 L 15.480469 32.609375 L 15.429688 32.53125 L 15.441406 32.058594 L 15.769531 30.921875 L 16.878906 27.609375 L 18.640625 22.410156 L 22.011719 21.289063 L 23.300781 20.859375 L 24.371094 20.480469 L 25.308594 20.148438 L 25.320313 20.140625 L 25.320313 20.109375 L 25.25 20.070313 L 22.019531 18.441406 L 18.441406 16.648438 L 14.191406 14.53125 L 9.988281 12.449219 L 6.550781 10.800781 L 3.769531 9.488281 L 3.730469 9.488281 L 3.699219 9.511719 L 3.699219 9.539063 L 3.710938 9.570313 L 4.089844 9.929688 L 5.199219 10.921875 L 6.519531 12.089844 L 7.980469 13.371094 L 11.691406 16.609375 L 11.628906 28.820313 L 11.570313 41.019531 L 5.988281 42.691406 L 3.839844 43.339844 L 2 43.878906 L 0.371094 44.351563 L 0.238281 44.371094 " transform="matrix(1,0,0,-1,0,45)"/>
</g>
</svg>
