<?xml version="1.0" encoding="UTF-8"?>
<svg xmlns="http://www.w3.org/2000/svg" xmlns:xlink="http://www.w3.org/1999/xlink" width="77pt" height="25.14pt" viewBox="0 0 77 25.14" version="1.1">
<defs>
<clipPath id="clip1">
  <path d="M 47 7 L 60 7 L 60 25.140625 L 47 25.140625 Z M 47 7 "/>
</clipPath>
</defs>
<g id="surface1">
<path style="fill:none;stroke-width:0.035;stroke-linecap:round;stroke-linejoin:round;stroke:rgb(0%,0%,0%);stroke-opacity:1;stroke-miterlimit:10;" d="M 11.851563 24.870469 L 11.238281 24.929063 L 10.480469 24.948594 L 9.691406 24.940781 L 9 24.901719 L 8.320313 24.800156 L 7.570313 24.64 L 6.871094 24.448594 L 6.328125 24.249375 L 5.828125 23.999375 L 5.230469 23.659531 L 4.621094 23.288438 L 4.109375 22.940781 L 3.621094 22.530625 L 3.058594 21.991563 L 2.539063 21.401719 L 2.121094 20.85875 L 1.761719 20.268906 L 1.378906 19.538438 L 1.039063 18.788438 L 0.800781 18.14 L 0.628906 17.468125 L 0.480469 16.679063 L 0.378906 15.878281 L 0.351563 15.218125 L 0.378906 14.589219 L 0.449219 13.870469 L 0.558594 13.179063 L 0.691406 12.651719 L 0.871094 12.128281 L 1.128906 11.499375 L 1.410156 10.870469 L 1.679688 10.339219 L 2.011719 9.811875 L 2.480469 9.190781 L 3 8.589219 L 3.488281 8.100938 L 4 7.67125 L 4.570313 7.229844 L 5.101563 6.85875 L 5.511719 6.620469 L 5.929688 6.429063 L 6.511719 6.198594 L 7.140625 5.968125 L 7.738281 5.788438 L 8.5 5.600938 L 9.21875 5.499375 L 9.988281 5.479844 L 10.921875 5.518906 L 11.691406 5.60875 L 12.519531 5.761094 L 13.28125 5.948594 L 13.859375 6.151719 L 14.390625 6.409531 L 15.03125 6.768906 L 15.679688 7.179063 L 16.230469 7.569688 L 16.839844 8.081406 L 17.339844 8.60875 L 17.761719 9.210313 L 18.171875 9.960313 L 18.460938 10.620469 L 18.75 11.401719 L 18.988281 12.159531 L 19.140625 12.788438 L 19.230469 13.378281 L 19.289063 14.038438 L 19.328125 14.659531 L 19.320313 15.128281 L 19.238281 16.120469 L 14.730469 16.190781 L 10.210938 16.249375 L 10.210938 13.429063 L 16.371094 13.429063 L 16.238281 12.620469 L 16.148438 12.241563 L 15.980469 11.788438 L 15.761719 11.339219 L 15.53125 10.948594 L 15.238281 10.581406 L 14.859375 10.17125 L 14.441406 9.788438 L 14.058594 9.499375 L 13.648438 9.241563 L 13.128906 8.979844 L 12.589844 8.741563 L 12.128906 8.581406 L 11.660156 8.460313 L 11.128906 8.350938 L 10.621094 8.280625 L 10.210938 8.261094 L 9.800781 8.280625 L 9.261719 8.35875 L 8.699219 8.468125 L 8.191406 8.60875 L 7.671875 8.800156 L 7.050781 9.10875 L 6.441406 9.479844 L 5.929688 9.839219 L 5.421875 10.300156 L 4.921875 10.85875 L 4.480469 11.468125 L 4.109375 12.10875 L 3.738281 12.901719 L 3.539063 13.530625 L 3.429688 14.198594 L 3.398438 15.061875 L 3.429688 15.741563 L 3.511719 16.491563 L 3.628906 17.190781 L 3.769531 17.710313 L 3.980469 18.198594 L 4.300781 18.788438 L 4.679688 19.370469 L 5.070313 19.850938 L 5.53125 20.319688 L 6.109375 20.788438 L 6.738281 21.218125 L 7.339844 21.550156 L 8.089844 21.870469 L 8.738281 22.061875 L 9.441406 22.151719 L 10.339844 22.17125 L 11.179688 22.14 L 11.859375 22.050156 L 12.449219 21.89 L 13.039063 21.64 L 13.46875 21.409531 L 13.890625 21.17125 L 14.261719 20.929063 L 14.480469 20.761094 L 14.738281 20.589219 L 14.949219 20.569688 L 15.210938 20.698594 L 15.699219 21.081406 L 16.019531 21.370469 L 16.320313 21.690781 L 16.550781 21.979844 L 16.671875 22.190781 L 16.699219 22.39 L 16.671875 22.589219 L 16.558594 22.780625 L 16.390625 22.948594 L 16.140625 23.120469 L 15.671875 23.39 L 15.121094 23.690781 L 14.550781 23.979844 L 13.921875 24.261094 L 13.179688 24.530625 L 12.449219 24.749375 L 11.851563 24.870469 " transform="matrix(1,0,0,-1,0,25.14)"/>
<path style="fill:none;stroke-width:0.035;stroke-linecap:round;stroke-linejoin:round;stroke:rgb(0%,0%,0%);stroke-opacity:1;stroke-miterlimit:10;" d="M 62.558594 24.460313 L 61.148438 24.460313 L 61.148438 5.909531 L 63.960938 5.909531 L 63.960938 24.460313 L 62.558594 24.460313 " transform="matrix(1,0,0,-1,0,25.14)"/>
<path style="fill:none;stroke-width:0.035;stroke-linecap:round;stroke-linejoin:round;stroke:rgb(0%,0%,0%);stroke-opacity:1;stroke-miterlimit:10;" d="M 26.421875 18.120469 L 25.671875 18.081406 L 25 17.991563 L 24.378906 17.839219 L 23.820313 17.628281 L 23.359375 17.401719 L 22.839844 17.069688 L 22.351563 16.729844 L 21.96875 16.409531 L 21.628906 16.030625 L 21.25 15.530625 L 20.898438 14.991563 L 20.628906 14.479844 L 20.371094 13.839219 L 20.199219 13.229844 L 20.101563 12.569688 L 20.070313 11.780625 L 20.101563 11.069688 L 20.191406 10.409531 L 20.320313 9.811875 L 20.5 9.319688 L 20.710938 8.901719 L 21 8.429063 L 21.300781 7.968125 L 21.578125 7.60875 L 21.910156 7.268906 L 22.359375 6.878281 L 22.851563 6.499375 L 23.320313 6.198594 L 23.980469 5.85875 L 24.550781 5.67125 L 25.21875 5.589219 L 26.289063 5.561875 L 27.300781 5.589219 L 28 5.67125 L 28.601563 5.839219 L 29.21875 6.120469 L 29.691406 6.39 L 30.21875 6.780625 L 30.71875 7.190781 L 31.121094 7.581406 L 31.46875 8.018906 L 31.828125 8.581406 L 32.148438 9.17125 L 32.351563 9.698594 L 32.5 10.229844 L 32.628906 10.831406 L 32.710938 11.42125 L 32.738281 11.878281 L 32.71875 12.339219 L 32.640625 12.901719 L 32.519531 13.460313 L 32.378906 13.940781 L 32.179688 14.42125 L 31.878906 14.979844 L 31.539063 15.518906 L 31.199219 15.960313 L 30.808594 16.370469 L 30.269531 16.811875 L 29.699219 17.210313 L 29.171875 17.511094 L 28.5 17.811875 L 27.890625 17.991563 L 27.230469 18.089219 L 26.421875 18.120469 " transform="matrix(1,0,0,-1,0,25.14)"/>
<path style="fill:none;stroke-width:0.035;stroke-linecap:round;stroke-linejoin:round;stroke:rgb(0%,0%,0%);stroke-opacity:1;stroke-miterlimit:10;" d="M 26.46875 15.518906 L 26.78125 15.491563 L 27.210938 15.35875 L 27.660156 15.17125 L 28.070313 14.940781 L 28.5 14.620469 L 28.890625 14.241563 L 29.21875 13.811875 L 29.46875 13.350938 L 29.640625 12.929063 L 29.789063 12.479844 L 29.890625 12.069688 L 29.921875 11.768906 L 29.890625 11.468125 L 29.769531 11.038438 L 29.601563 10.581406 L 29.398438 10.128281 L 29.109375 9.64 L 28.769531 9.218125 L 28.371094 8.850938 L 27.929688 8.561875 L 27.519531 8.35875 L 27.078125 8.190781 L 26.660156 8.069688 L 26.339844 8.030625 L 26.03125 8.069688 L 25.609375 8.198594 L 25.160156 8.39 L 24.761719 8.60875 L 24.371094 8.909531 L 23.960938 9.300156 L 23.609375 9.729844 L 23.359375 10.128281 L 23.179688 10.538438 L 23.019531 10.999375 L 22.921875 11.440781 L 22.878906 11.780625 L 22.910156 12.120469 L 23.011719 12.550156 L 23.160156 12.991563 L 23.328125 13.378281 L 23.53125 13.741563 L 23.769531 14.10875 L 24.011719 14.429063 L 24.210938 14.651719 L 24.421875 14.811875 L 24.691406 14.991563 L 24.980469 15.159531 L 25.238281 15.280625 L 25.511719 15.370469 L 25.839844 15.440781 L 26.179688 15.499375 L 26.46875 15.518906 " transform="matrix(1,0,0,-1,0,25.14)"/>
<path style="fill:none;stroke-width:0.035;stroke-linecap:round;stroke-linejoin:round;stroke:rgb(0%,0%,0%);stroke-opacity:1;stroke-miterlimit:10;" d="M 40.28125 18.030625 L 39.539063 18.038438 L 38.859375 17.999375 L 38.238281 17.89 L 37.679688 17.729844 L 37.210938 17.511094 L 36.628906 17.14 L 36.050781 16.698594 L 35.550781 16.261094 L 35.070313 15.729844 L 34.648438 15.151719 L 34.308594 14.569688 L 34.070313 14.018906 L 33.921875 13.518906 L 33.800781 12.960313 L 33.710938 12.440781 L 33.691406 12.030625 L 33.710938 11.64 L 33.761719 11.128281 L 33.839844 10.60875 L 33.929688 10.151719 L 34.089844 9.67125 L 34.351563 9.081406 L 34.679688 8.491563 L 35.019531 7.991563 L 35.5 7.440781 L 36.03125 6.960313 L 36.648438 6.538438 L 37.390625 6.128281 L 38.289063 5.718125 L 38.890625 5.530625 L 39.46875 5.479844 L 40.289063 5.530625 L 40.898438 5.620469 L 41.601563 5.800156 L 42.269531 6.018906 L 42.808594 6.249375 L 43.308594 6.538438 L 43.859375 6.940781 L 44.378906 7.378281 L 44.769531 7.780625 L 45.109375 8.229844 L 45.460938 8.811875 L 45.761719 9.401719 L 45.96875 9.929063 L 46.121094 10.429063 L 46.238281 10.948594 L 46.328125 11.409531 L 46.359375 11.710313 L 46.339844 11.999375 L 46.28125 12.429063 L 46.191406 12.92125 L 46.089844 13.378281 L 45.929688 13.878281 L 45.660156 14.479844 L 45.328125 15.081406 L 45 15.581406 L 44.589844 16.050156 L 44.078125 16.538438 L 43.519531 16.991563 L 43 17.311875 L 42.359375 17.620469 L 41.738281 17.831406 L 41.070313 17.960313 L 40.28125 18.030625 " transform="matrix(1,0,0,-1,0,25.14)"/>
<path style="fill:none;stroke-width:0.035;stroke-linecap:round;stroke-linejoin:round;stroke:rgb(0%,0%,0%);stroke-opacity:1;stroke-miterlimit:10;" d="M 39.988281 15.530625 L 40.359375 15.499375 L 40.808594 15.378281 L 41.28125 15.218125 L 41.691406 15.030625 L 42.109375 14.741563 L 42.488281 14.39 L 42.808594 13.991563 L 43.070313 13.538438 L 43.25 13.10875 L 43.398438 12.628281 L 43.511719 12.151719 L 43.539063 11.780625 L 43.511719 11.409531 L 43.398438 10.940781 L 43.25 10.448594 L 43.070313 10.018906 L 42.808594 9.581406 L 42.488281 9.17125 L 42.109375 8.819688 L 41.691406 8.538438 L 41.28125 8.339219 L 40.820313 8.179063 L 40.371094 8.061875 L 40.019531 8.030625 L 39.660156 8.061875 L 39.21875 8.179063 L 38.75 8.339219 L 38.351563 8.538438 L 37.921875 8.831406 L 37.539063 9.179063 L 37.210938 9.600938 L 36.941406 10.081406 L 36.699219 10.651719 L 36.570313 11.14 L 36.53125 11.651719 L 36.578125 12.280625 L 36.660156 12.780625 L 36.820313 13.288438 L 37.011719 13.749375 L 37.210938 14.081406 L 37.460938 14.350938 L 37.78125 14.651719 L 38.128906 14.92125 L 38.449219 15.120469 L 38.800781 15.268906 L 39.210938 15.401719 L 39.628906 15.499375 L 39.988281 15.530625 " transform="matrix(1,0,0,-1,0,25.14)"/>
<g clip-path="url(#clip1)" clip-rule="nonzero">
<path style="fill:none;stroke-width:0.035;stroke-linecap:round;stroke-linejoin:round;stroke:rgb(0%,0%,0%);stroke-opacity:1;stroke-miterlimit:10;" d="M 53.28125 18.120469 L 52.710938 18.081406 L 52.101563 17.968125 L 51.5 17.788438 L 50.921875 17.561875 L 50.378906 17.268906 L 49.820313 16.870469 L 49.308594 16.429063 L 48.890625 15.979844 L 48.539063 15.518906 L 48.191406 14.991563 L 47.878906 14.460313 L 47.671875 14.038438 L 47.53125 13.600938 L 47.410156 13.011094 L 47.328125 12.378281 L 47.300781 11.811875 L 47.339844 11.190781 L 47.429688 10.561875 L 47.589844 9.960313 L 47.78125 9.440781 L 48.011719 8.979844 L 48.289063 8.468125 L 48.589844 7.991563 L 48.851563 7.620469 L 49.160156 7.280625 L 49.621094 6.89 L 50.148438 6.518906 L 50.660156 6.229844 L 51.300781 5.940781 L 51.890625 5.749375 L 52.5 5.64 L 53.171875 5.60875 L 53.75 5.64 L 54.359375 5.729844 L 54.929688 5.870469 L 55.398438 6.038438 L 55.769531 6.218125 L 56.121094 6.378281 L 56.421875 6.518906 L 56.550781 6.581406 L 56.578125 6.581406 L 56.601563 6.569688 L 56.621094 6.538438 L 56.648438 6.331406 L 56.648438 5.991563 L 56.601563 5.550156 L 56.519531 5.069688 L 56.390625 4.581406 L 56.230469 4.151719 L 56.078125 3.850938 L 55.859375 3.600938 L 55.511719 3.319688 L 55.101563 3.050156 L 54.671875 2.831406 L 54.160156 2.628281 L 53.691406 2.518906 L 53.261719 2.479844 L 52.828125 2.518906 L 52.480469 2.620469 L 52.078125 2.811875 L 51.710938 3.050156 L 51.421875 3.300156 L 51.160156 3.569688 L 50.898438 3.85875 L 50.671875 4.14 L 50.511719 4.350938 L 50.300781 4.581406 L 50.101563 4.64 L 49.808594 4.569688 L 49.101563 4.241563 L 48.679688 4.011094 L 48.328125 3.761094 L 48.070313 3.530625 L 48 3.370469 L 48.050781 3.179063 L 48.25 2.819688 L 48.53125 2.409531 L 48.859375 1.979844 L 49.269531 1.530625 L 49.769531 1.10875 L 50.28125 0.741563 L 50.75 0.491563 L 51.289063 0.300156 L 51.898438 0.159531 L 52.570313 0.0814063 L 53.238281 0.0501563 L 53.871094 0.0696875 L 54.539063 0.120469 L 55.171875 0.210313 L 55.628906 0.300156 L 56.101563 0.479844 L 56.609375 0.780625 L 57.128906 1.179063 L 57.648438 1.67125 L 58.148438 2.229844 L 58.53125 2.768906 L 58.808594 3.311875 L 59 3.85875 L 59.121094 4.64 L 59.199219 6.319688 L 59.25 8.530625 L 59.269531 11.300156 L 59.269531 17.651719 L 57.980469 17.651719 L 57.328125 17.64 L 56.960938 17.581406 L 56.761719 17.468125 L 56.710938 17.39 L 56.691406 17.300156 L 56.679688 17.159531 L 56.660156 17.050156 L 56.628906 16.968125 L 56.609375 16.948594 L 56.589844 16.948594 L 56.53125 16.960313 L 56.230469 17.120469 L 55.878906 17.311875 L 55.480469 17.530625 L 54.949219 17.788438 L 54.421875 17.979844 L 53.871094 18.081406 L 53.28125 18.120469 " transform="matrix(1,0,0,-1,0,25.14)"/>
</g>
<path style="fill:none;stroke-width:0.035;stroke-linecap:round;stroke-linejoin:round;stroke:rgb(0%,0%,0%);stroke-opacity:1;stroke-miterlimit:10;" d="M 53.449219 15.530625 L 53.738281 15.511094 L 54.089844 15.448594 L 54.441406 15.35875 L 54.738281 15.249375 L 55.019531 15.10875 L 55.328125 14.909531 L 55.621094 14.690781 L 55.839844 14.491563 L 56.03125 14.249375 L 56.238281 13.929063 L 56.441406 13.581406 L 56.601563 13.261094 L 56.71875 12.92125 L 56.828125 12.518906 L 56.898438 12.120469 L 56.921875 11.800156 L 56.890625 11.448594 L 56.769531 10.979844 L 56.601563 10.479844 L 56.398438 10.030625 L 56.101563 9.491563 L 55.78125 9.089219 L 55.378906 8.761094 L 54.871094 8.468125 L 54.359375 8.249375 L 53.910156 8.128281 L 53.488281 8.089219 L 53.058594 8.120469 L 52.71875 8.218125 L 52.328125 8.370469 L 51.949219 8.561875 L 51.660156 8.761094 L 51.398438 8.991563 L 51.121094 9.311875 L 50.859375 9.651719 L 50.671875 9.948594 L 50.53125 10.300156 L 50.410156 10.761094 L 50.320313 11.249375 L 50.289063 11.690781 L 50.308594 12.151719 L 50.398438 12.679063 L 50.53125 13.198594 L 50.679688 13.620469 L 50.910156 14.030625 L 51.21875 14.42125 L 51.570313 14.761094 L 51.949219 15.030625 L 52.328125 15.218125 L 52.75 15.378281 L 53.140625 15.499375 L 53.449219 15.530625 " transform="matrix(1,0,0,-1,0,25.14)"/>
<path style="fill:none;stroke-width:0.035;stroke-linecap:round;stroke-linejoin:round;stroke:rgb(0%,0%,0%);stroke-opacity:1;stroke-miterlimit:10;" d="M 71.390625 18.018906 L 70.871094 18.030625 L 70.308594 18.011094 L 69.78125 17.948594 L 69.398438 17.85875 L 69.03125 17.729844 L 68.578125 17.530625 L 68.121094 17.300156 L 67.71875 17.061875 L 67.339844 16.800156 L 66.949219 16.460313 L 66.589844 16.10875 L 66.328125 15.800156 L 66.109375 15.468125 L 65.871094 15.038438 L 65.628906 14.600938 L 65.449219 14.198594 L 65.308594 13.761094 L 65.191406 13.159531 L 65.109375 12.499375 L 65.078125 11.89 L 65.109375 11.198594 L 65.210938 10.530625 L 65.371094 9.878281 L 65.609375 9.249375 L 65.878906 8.718125 L 66.25 8.14 L 66.671875 7.600938 L 67.070313 7.179063 L 67.488281 6.831406 L 67.980469 6.479844 L 68.46875 6.17125 L 68.859375 5.968125 L 69.320313 5.819688 L 69.921875 5.710313 L 70.601563 5.651719 L 71.320313 5.628281 L 72.089844 5.67125 L 72.769531 5.768906 L 73.371094 5.92125 L 73.910156 6.128281 L 74.351563 6.378281 L 74.839844 6.710313 L 75.320313 7.081406 L 75.691406 7.429063 L 76.078125 7.850938 L 76.261719 8.14 L 76.300781 8.35875 L 76.210938 8.561875 L 76.050781 8.718125 L 75.78125 8.92125 L 75.460938 9.14 L 75.128906 9.331406 L 74.589844 9.600938 L 74.351563 9.651719 L 74.128906 9.561875 L 73.769531 9.261094 L 73.5 9.038438 L 73.121094 8.788438 L 72.699219 8.550156 L 72.320313 8.370469 L 71.878906 8.218125 L 71.441406 8.128281 L 71.011719 8.100938 L 70.621094 8.128281 L 70.269531 8.229844 L 69.871094 8.409531 L 69.460938 8.64 L 69.140625 8.878281 L 68.859375 9.120469 L 68.628906 9.35875 L 68.460938 9.581406 L 68.421875 9.698594 L 68.441406 9.749375 L 68.46875 9.800156 L 68.609375 9.92125 L 68.820313 10.038438 L 69.070313 10.151719 L 69.351563 10.249375 L 69.660156 10.378281 L 69.960938 10.499375 L 70.179688 10.600938 L 70.46875 10.718125 L 71.03125 10.968125 L 71.710938 11.249375 L 72.410156 11.550156 L 73.179688 11.870469 L 74.019531 12.241563 L 74.808594 12.589219 L 75.410156 12.85875 L 76.648438 13.42125 L 76.148438 14.42125 L 75.921875 14.85875 L 75.628906 15.350938 L 75.328125 15.819688 L 75.070313 16.190781 L 74.789063 16.511094 L 74.390625 16.870469 L 73.949219 17.198594 L 73.550781 17.440781 L 73.089844 17.628281 L 72.519531 17.811875 L 71.921875 17.948594 L 71.390625 18.018906 " transform="matrix(1,0,0,-1,0,25.14)"/>
<path style="fill:none;stroke-width:0.035;stroke-linecap:round;stroke-linejoin:round;stroke:rgb(0%,0%,0%);stroke-opacity:1;stroke-miterlimit:10;" d="M 71.320313 15.440781 L 71.699219 15.370469 L 72.089844 15.249375 L 72.429688 15.100938 L 72.671875 14.929063 L 72.839844 14.761094 L 72.941406 14.589219 L 72.980469 14.448594 L 72.980469 14.39 L 72.949219 14.350938 L 72.800781 14.249375 L 72.148438 13.948594 L 71.371094 13.600938 L 70.480469 13.218125 L 69.601563 12.850938 L 68.828125 12.538438 L 68.160156 12.268906 L 68.070313 12.249375 L 68.050781 12.261094 L 68.03125 12.280625 L 67.988281 12.409531 L 67.960938 12.581406 L 67.960938 12.780625 L 67.988281 13.038438 L 68.101563 13.378281 L 68.25 13.749375 L 68.429688 14.081406 L 68.671875 14.409531 L 68.988281 14.729844 L 69.339844 15.018906 L 69.660156 15.198594 L 70.019531 15.331406 L 70.460938 15.42125 L 70.921875 15.460313 L 71.320313 15.440781 " transform="matrix(1,0,0,-1,0,25.14)"/>
</g>
</svg>
